<svg width="32" height="32" viewBox="0 0 32 32" fill="none" xmlns="http://www.w3.org/2000/svg">
<g clip-path="url(#clip0_2703_6)">
<mask id="mask0_2703_6" style="mask-type:alpha" maskUnits="userSpaceOnUse" x="0" y="0" width="32" height="32">
<rect width="32" height="32" rx="5.25" fill="#C4C4C4"/>
</mask>
<g mask="url(#mask0_2703_6)">
<rect width="32" height="32" fill="#F5F5F5"/>
<path d="M7.98368 16.359C7.98368 14.7457 8.29901 13.345 8.92968 12.157C9.56035 10.9543 10.4623 10.023 11.6357 9.363C12.809 8.703 14.195 8.373 15.7937 8.373C17.407 8.373 18.8003 8.703 19.9737 9.363C21.147 10.023 22.049 10.9543 22.6797 12.157C23.325 13.345 23.6477 14.7457 23.6477 16.359C23.6477 17.9577 23.325 19.3583 22.6797 20.561C22.049 21.7637 21.147 22.7023 19.9737 23.377C18.8003 24.037 17.407 24.367 15.7937 24.367C14.195 24.367 12.809 24.037 11.6357 23.377C10.477 22.7023 9.57501 21.7637 8.92968 20.561C8.29901 19.3583 7.98368 17.9577 7.98368 16.359ZM12.2297 16.359C12.2297 17.811 12.523 18.9477 13.1097 19.769C13.6963 20.5757 14.591 20.979 15.7937 20.979C16.9963 20.979 17.8983 20.5757 18.4997 19.769C19.101 18.9477 19.4017 17.811 19.4017 16.359C19.4017 14.907 19.101 13.7777 18.4997 12.971C17.8983 12.1643 16.9963 11.761 15.7937 11.761C14.591 11.761 13.6963 12.1643 13.1097 12.971C12.523 13.763 12.2297 14.8923 12.2297 16.359Z" fill="#313BAC"/>
</g>
</g>
<defs>
<clipPath id="clip0_2703_6">
<rect width="32" height="32" fill="white"/>
</clipPath>
</defs>
</svg>
