<svg width="32" height="32" viewBox="0 0 32 32" fill="none" xmlns="http://www.w3.org/2000/svg">
<g clip-path="url(#clip0_2700_8)">
<mask id="mask0_2700_8" style="mask-type:alpha" maskUnits="userSpaceOnUse" x="0" y="0" width="32" height="32">
<rect width="32" height="32" rx="5.25" fill="#C4C4C4"/>
</mask>
<g mask="url(#mask0_2700_8)">
<rect width="32" height="32" fill="#EDF2F8"/>
<path d="M16.9125 24.367C15.1085 24.367 13.5832 24.037 12.3365 23.377C11.1045 22.717 10.1658 21.793 9.5205 20.605C8.88983 19.417 8.5745 18.031 8.5745 16.447C8.5745 14.8043 8.91917 13.3817 9.6085 12.179C10.3125 10.9617 11.3172 10.023 12.6225 9.363C13.9278 8.703 15.4972 8.373 17.3305 8.373C18.4598 8.373 19.4572 8.505 20.3225 8.769C21.2025 9.033 21.9578 9.41433 22.5885 9.913L21.3345 13.015C20.8798 12.707 20.4472 12.4723 20.0365 12.311C19.6405 12.135 19.2298 12.0103 18.8045 11.937C18.3938 11.8637 17.9172 11.827 17.3745 11.827C15.8492 11.827 14.7052 12.223 13.9425 13.015C13.1945 13.7923 12.8205 14.9363 12.8205 16.447C12.8205 17.943 13.1652 19.0723 13.8545 19.835C14.5438 20.5977 15.6365 20.979 17.1325 20.979C17.5872 20.979 18.0785 20.935 18.6065 20.847C19.1492 20.759 19.6992 20.627 20.2565 20.451L19.5305 21.903V18.207H16.3185V15.391H22.8525V23.157C22.0165 23.553 21.0778 23.8537 20.0365 24.059C19.0098 24.2643 17.9685 24.367 16.9125 24.367Z" fill="#313BAC"/>
</g>
</g>
<defs>
<clipPath id="clip0_2700_8">
<rect width="32" height="32" fill="white"/>
</clipPath>
</defs>
</svg>
